<svg id="visual" viewBox="0 0 900 600" width="900" height="600" xmlns="http://www.w3.org/2000/svg" xmlns:xlink="http://www.w3.org/1999/xlink" version="1.1"><rect x="0" y="0" width="900" height="600" fill="#FFFFFF"></rect><path d="M427 600L526 600L526 514L568 514L568 429L543 429L543 343L500 343L500 257L486 257L486 171L472 171L472 86L471 86L471 0L900 0L900 86L900 86L900 171L900 171L900 257L900 257L900 343L900 343L900 429L900 429L900 514L900 514L900 600L900 600Z" fill="#9900ff"></path><path d="M553 600L641 600L641 514L631 514L631 429L633 429L633 343L576 343L576 257L648 257L648 171L619 171L619 86L670 86L670 0L900 0L900 86L900 86L900 171L900 171L900 257L900 257L900 343L900 343L900 429L900 429L900 514L900 514L900 600L900 600Z" fill="#4b1589"></path><path d="M713 600L769 600L769 514L719 514L719 429L687 429L687 343L775 343L775 257L787 257L787 171L695 171L695 86L795 86L795 0L900 0L900 86L900 86L900 171L900 171L900 257L900 257L900 343L900 343L900 429L900 429L900 514L900 514L900 600L900 600Z" fill="#140021"></path></svg>