<svg id="visual" viewBox="0 0 900 600" width="900" height="600" xmlns="http://www.w3.org/2000/svg" xmlns:xlink="http://www.w3.org/1999/xlink" version="1.1"><path d="M0 103L82 103L82 43L164 43L164 43L245 43L245 43L327 43L327 103L409 103L409 79L491 79L491 103L573 103L573 67L655 67L655 79L736 79L736 67L818 67L818 61L900 61L900 85L900 0L900 0L818 0L818 0L736 0L736 0L655 0L655 0L573 0L573 0L491 0L491 0L409 0L409 0L327 0L327 0L245 0L245 0L164 0L164 0L82 0L82 0L0 0Z" fill="#ffffff"></path><path d="M0 391L82 391L82 163L164 163L164 175L245 175L245 151L327 151L327 361L409 361L409 247L491 247L491 223L573 223L573 331L655 331L655 325L736 325L736 163L818 163L818 265L900 265L900 235L900 83L900 59L818 59L818 65L736 65L736 77L655 77L655 65L573 65L573 101L491 101L491 77L409 77L409 101L327 101L327 41L245 41L245 41L164 41L164 41L82 41L82 101L0 101Z" fill="#d9c8e2"></path><path d="M0 451L82 451L82 265L164 265L164 283L245 283L245 205L327 205L327 439L409 439L409 337L491 337L491 373L573 373L573 439L655 439L655 397L736 397L736 235L818 235L818 367L900 367L900 319L900 233L900 263L818 263L818 161L736 161L736 323L655 323L655 329L573 329L573 221L491 221L491 245L409 245L409 359L327 359L327 149L245 149L245 173L164 173L164 161L82 161L82 389L0 389Z" fill="#b394c5"></path><path d="M0 493L82 493L82 391L164 391L164 415L245 415L245 331L327 331L327 493L409 493L409 385L491 385L491 427L573 427L573 505L655 505L655 511L736 511L736 349L818 349L818 469L900 469L900 385L900 317L900 365L818 365L818 233L736 233L736 395L655 395L655 437L573 437L573 371L491 371L491 335L409 335L409 437L327 437L327 203L245 203L245 281L164 281L164 263L82 263L82 449L0 449Z" fill="#8d61a8"></path><path d="M0 601L82 601L82 601L164 601L164 601L245 601L245 601L327 601L327 601L409 601L409 601L491 601L491 601L573 601L573 601L655 601L655 601L736 601L736 601L818 601L818 601L900 601L900 601L900 383L900 467L818 467L818 347L736 347L736 509L655 509L655 503L573 503L573 425L491 425L491 383L409 383L409 491L327 491L327 329L245 329L245 413L164 413L164 389L82 389L82 491L0 491Z" fill="#662f8b"></path></svg>